<?xml version="1.0" encoding="UTF-8" standalone="no"?>
<!DOCTYPE svg PUBLIC "-//W3C//DTD SVG 1.1//EN"
 "http://www.w3.org/Graphics/SVG/1.1/DTD/svg11.dtd">
<!-- Generated by graphviz version 2.43.0 (0)
 -->
<!-- Title: Family tree of Habsburg&#45;Lorraine Pages: 1 -->
<svg width="1294pt" height="260pt"
 viewBox="0.00 0.00 1293.50 260.00" xmlns="http://www.w3.org/2000/svg" xmlns:xlink="http://www.w3.org/1999/xlink">
<g id="graph0" class="graph" transform="scale(1 1) rotate(0) translate(4 256)">
<title>Family tree of Habsburg&#45;Lorraine</title>
<!-- MariaTheresa17171780 -->
<g id="node1" class="node">
<title>MariaTheresa17171780</title>
<polygon fill="none" stroke="black" points="741.5,-252 621.5,-252 621.5,-216 741.5,-216 741.5,-252"/>
<text text-anchor="middle" x="681.5" y="-230.3" font-family="Times,serif" font-size="14.00">Maria Theresa</text>
</g>
<!-- MariaAnna17581789 -->
<g id="node2" class="node">
<title>MariaAnna17581789</title>
<polygon fill="none" stroke="black" points="147,-180 48,-180 48,-144 147,-144 147,-180"/>
<text text-anchor="middle" x="97.5" y="-158.3" font-family="Times,serif" font-size="14.00">Maria Anna</text>
</g>
<!-- MariaTheresa17171780&#45;&gt;MariaAnna17581789 -->
<g id="edge1" class="edge">
<title>MariaTheresa17171780&#45;&gt;MariaAnna17581789</title>
<path fill="none" stroke="black" d="M621.15,-230.44C524.85,-225.58 330.49,-212.61 157.3,-179.94"/>
<polygon fill="black" stroke="black" points="157.72,-176.46 147.24,-178.01 156.4,-183.33 157.72,-176.46"/>
</g>
<!-- MariaAmalia17461804 -->
<g id="node3" class="node">
<title>MariaAmalia17461804</title>
<polygon fill="none" stroke="black" points="277.5,-180 165.5,-180 165.5,-144 277.5,-144 277.5,-180"/>
<text text-anchor="middle" x="221.5" y="-158.3" font-family="Times,serif" font-size="14.00">Maria Amalia</text>
</g>
<!-- MariaTheresa17171780&#45;&gt;MariaAmalia17461804 -->
<g id="edge2" class="edge">
<title>MariaTheresa17171780&#45;&gt;MariaAmalia17461804</title>
<path fill="none" stroke="black" d="M621.4,-227.15C543.82,-219.09 404.86,-202.92 287.5,-180 287.4,-179.98 287.3,-179.96 287.19,-179.94"/>
<polygon fill="black" stroke="black" points="288.07,-176.55 277.57,-177.92 286.64,-183.4 288.07,-176.55"/>
</g>
<!-- MarieChristine17421798 -->
<g id="node4" class="node">
<title>MarieChristine17421798</title>
<polygon fill="none" stroke="black" points="425,-180 296,-180 296,-144 425,-144 425,-180"/>
<text text-anchor="middle" x="360.5" y="-158.3" font-family="Times,serif" font-size="14.00">Marie Christine</text>
</g>
<!-- MariaTheresa17171780&#45;&gt;MarieChristine17421798 -->
<g id="edge3" class="edge">
<title>MariaTheresa17171780&#45;&gt;MarieChristine17421798</title>
<path fill="none" stroke="black" d="M621.3,-220.34C573.5,-210.22 504.7,-195.54 434.91,-180.08"/>
<polygon fill="black" stroke="black" points="435.58,-176.64 425.06,-177.89 434.07,-183.47 435.58,-176.64"/>
</g>
<!-- LeopoldII17471792 -->
<g id="node5" class="node">
<title>LeopoldII17471792</title>
<polygon fill="none" stroke="black" points="535.5,-180 443.5,-180 443.5,-144 535.5,-144 535.5,-180"/>
<text text-anchor="middle" x="489.5" y="-158.3" font-family="Times,serif" font-size="14.00">Leopold II.</text>
</g>
<!-- MariaTheresa17171780&#45;&gt;LeopoldII17471792 -->
<g id="edge16" class="edge">
<title>MariaTheresa17171780&#45;&gt;LeopoldII17471792</title>
<path fill="none" stroke="black" d="M634.53,-215.88C607.62,-206.06 573.68,-193.69 545.4,-183.38"/>
<polygon fill="black" stroke="black" points="546.25,-179.96 535.65,-179.83 543.85,-186.54 546.25,-179.96"/>
</g>
<!-- MariaElisabeth17451808 -->
<g id="node18" class="node">
<title>MariaElisabeth17451808</title>
<polygon fill="none" stroke="black" points="685,-180 554,-180 554,-144 685,-144 685,-180"/>
<text text-anchor="middle" x="619.5" y="-158.3" font-family="Times,serif" font-size="14.00">Maria Elisabeth</text>
</g>
<!-- MariaTheresa17171780&#45;&gt;MariaElisabeth17451808 -->
<g id="edge17" class="edge">
<title>MariaTheresa17171780&#45;&gt;MariaElisabeth17451808</title>
<path fill="none" stroke="black" d="M666.17,-215.7C658.74,-207.3 649.68,-197.07 641.52,-187.86"/>
<polygon fill="black" stroke="black" points="643.9,-185.27 634.65,-180.1 638.66,-189.91 643.9,-185.27"/>
</g>
<!-- JosephII17411790 -->
<g id="node19" class="node">
<title>JosephII17411790</title>
<polygon fill="none" stroke="black" points="786,-180 703,-180 703,-144 786,-144 786,-180"/>
<text text-anchor="middle" x="744.5" y="-158.3" font-family="Times,serif" font-size="14.00">Joseph II.</text>
</g>
<!-- MariaTheresa17171780&#45;&gt;JosephII17411790 -->
<g id="edge18" class="edge">
<title>MariaTheresa17171780&#45;&gt;JosephII17411790</title>
<path fill="none" stroke="black" d="M697.07,-215.7C704.7,-207.22 714.02,-196.86 722.38,-187.58"/>
<polygon fill="black" stroke="black" points="725.02,-189.88 729.11,-180.1 719.81,-185.2 725.02,-189.88"/>
</g>
<!-- MariaKaroline17521814 -->
<g id="node20" class="node">
<title>MariaKaroline17521814</title>
<polygon fill="none" stroke="black" points="927,-180 804,-180 804,-144 927,-144 927,-180"/>
<text text-anchor="middle" x="865.5" y="-158.3" font-family="Times,serif" font-size="14.00">Maria Karoline</text>
</g>
<!-- MariaTheresa17171780&#45;&gt;MariaKaroline17521814 -->
<g id="edge19" class="edge">
<title>MariaTheresa17171780&#45;&gt;MariaKaroline17521814</title>
<path fill="none" stroke="black" d="M726.51,-215.88C752,-206.18 784.07,-193.98 810.98,-183.74"/>
<polygon fill="black" stroke="black" points="812.53,-186.9 820.63,-180.07 810.04,-180.35 812.53,-186.9"/>
</g>
<!-- MariaAntonia17551793 -->
<g id="node21" class="node">
<title>MariaAntonia17551793</title>
<polygon fill="none" stroke="black" points="1063.5,-180 945.5,-180 945.5,-144 1063.5,-144 1063.5,-180"/>
<text text-anchor="middle" x="1004.5" y="-158.3" font-family="Times,serif" font-size="14.00">Maria Antonia</text>
</g>
<!-- MariaTheresa17171780&#45;&gt;MariaAntonia17551793 -->
<g id="edge20" class="edge">
<title>MariaTheresa17171780&#45;&gt;MariaAntonia17551793</title>
<path fill="none" stroke="black" d="M741.67,-221.2C791.11,-211.34 863.22,-196.6 935.06,-180.29"/>
<polygon fill="black" stroke="black" points="936.22,-183.61 945.2,-177.97 934.67,-176.79 936.22,-183.61"/>
</g>
<!-- Ferdinand17541806 -->
<g id="node22" class="node">
<title>Ferdinand17541806</title>
<polygon fill="none" stroke="black" points="1171,-180 1082,-180 1082,-144 1171,-144 1171,-180"/>
<text text-anchor="middle" x="1126.5" y="-158.3" font-family="Times,serif" font-size="14.00">Ferdinand</text>
</g>
<!-- MariaTheresa17171780&#45;&gt;Ferdinand17541806 -->
<g id="edge21" class="edge">
<title>MariaTheresa17171780&#45;&gt;Ferdinand17541806</title>
<path fill="none" stroke="black" d="M741.68,-228.05C816.9,-221.15 949.61,-206.64 1071.96,-179.89"/>
<polygon fill="black" stroke="black" points="1072.87,-183.28 1081.87,-177.69 1071.35,-176.44 1072.87,-183.28"/>
</g>
<!-- Maximilian17561801 -->
<g id="node23" class="node">
<title>Maximilian17561801</title>
<polygon fill="none" stroke="black" points="1285.5,-180 1189.5,-180 1189.5,-144 1285.5,-144 1285.5,-180"/>
<text text-anchor="middle" x="1237.5" y="-158.3" font-family="Times,serif" font-size="14.00">Maximilian</text>
</g>
<!-- MariaTheresa17171780&#45;&gt;Maximilian17561801 -->
<g id="edge22" class="edge">
<title>MariaTheresa17171780&#45;&gt;Maximilian17561801</title>
<path fill="none" stroke="black" d="M741.57,-230.19C833.91,-225.1 1016.29,-211.93 1179.25,-180.03"/>
<polygon fill="black" stroke="black" points="1180.33,-183.39 1189.45,-178.01 1178.96,-176.52 1180.33,-183.39"/>
</g>
<!-- MariaTheresia17671827 -->
<g id="node6" class="node">
<title>MariaTheresia17671827</title>
<polygon fill="none" stroke="black" points="125,-108 0,-108 0,-72 125,-72 125,-108"/>
<text text-anchor="middle" x="62.5" y="-86.3" font-family="Times,serif" font-size="14.00">Maria Theresia</text>
</g>
<!-- LeopoldII17471792&#45;&gt;MariaTheresia17671827 -->
<g id="edge4" class="edge">
<title>LeopoldII17471792&#45;&gt;MariaTheresia17671827</title>
<path fill="none" stroke="black" d="M443.45,-146.1C440.43,-145.33 437.43,-144.62 434.5,-144 306.36,-116.74 268.56,-130.74 135.42,-108.03"/>
<polygon fill="black" stroke="black" points="135.69,-104.52 125.24,-106.25 134.49,-111.42 135.69,-104.52"/>
</g>
<!-- FranzIII17681855 -->
<g id="node7" class="node">
<title>FranzIII17681855</title>
<polygon fill="none" stroke="black" points="235.5,-108 143.5,-108 143.5,-72 235.5,-72 235.5,-108"/>
<text text-anchor="middle" x="189.5" y="-86.3" font-family="Times,serif" font-size="14.00">Franz II./I.</text>
</g>
<!-- LeopoldII17471792&#45;&gt;FranzIII17681855 -->
<g id="edge8" class="edge">
<title>LeopoldII17471792&#45;&gt;FranzIII17681855</title>
<path fill="none" stroke="black" d="M443.39,-146.34C440.39,-145.51 437.41,-144.72 434.5,-144 354.1,-124.03 329.66,-128.36 245.35,-108.05"/>
<polygon fill="black" stroke="black" points="246.15,-104.65 235.61,-105.66 244.49,-111.45 246.15,-104.65"/>
</g>
<!-- FerdinandIII17691824 -->
<g id="node11" class="node">
<title>FerdinandIII17691824</title>
<polygon fill="none" stroke="black" points="367.5,-108 253.5,-108 253.5,-72 367.5,-72 367.5,-108"/>
<text text-anchor="middle" x="310.5" y="-86.3" font-family="Times,serif" font-size="14.00">Ferdinand III.</text>
</g>
<!-- LeopoldII17471792&#45;&gt;FerdinandIII17691824 -->
<g id="edge9" class="edge">
<title>LeopoldII17471792&#45;&gt;FerdinandIII17691824</title>
<path fill="none" stroke="black" d="M445.71,-143.88C420.92,-134.18 389.72,-121.98 363.54,-111.74"/>
<polygon fill="black" stroke="black" points="364.73,-108.45 354.15,-108.07 362.18,-114.97 364.73,-108.45"/>
</g>
<!-- Karl17711847 -->
<g id="node12" class="node">
<title>Karl17711847</title>
<polygon fill="none" stroke="black" points="439.5,-108 385.5,-108 385.5,-72 439.5,-72 439.5,-108"/>
<text text-anchor="middle" x="412.5" y="-86.3" font-family="Times,serif" font-size="14.00">Karl</text>
</g>
<!-- LeopoldII17471792&#45;&gt;Karl17711847 -->
<g id="edge10" class="edge">
<title>LeopoldII17471792&#45;&gt;Karl17711847</title>
<path fill="none" stroke="black" d="M470.47,-143.7C460.96,-135.05 449.29,-124.45 438.93,-115.03"/>
<polygon fill="black" stroke="black" points="441.07,-112.24 431.31,-108.1 436.36,-117.42 441.07,-112.24"/>
</g>
<!-- Joseph17761847 -->
<g id="node13" class="node">
<title>Joseph17761847</title>
<polygon fill="none" stroke="black" points="521.5,-108 457.5,-108 457.5,-72 521.5,-72 521.5,-108"/>
<text text-anchor="middle" x="489.5" y="-86.3" font-family="Times,serif" font-size="14.00">Joseph</text>
</g>
<!-- LeopoldII17471792&#45;&gt;Joseph17761847 -->
<g id="edge11" class="edge">
<title>LeopoldII17471792&#45;&gt;Joseph17761847</title>
<path fill="none" stroke="black" d="M489.5,-143.7C489.5,-135.98 489.5,-126.71 489.5,-118.11"/>
<polygon fill="black" stroke="black" points="493,-118.1 489.5,-108.1 486,-118.1 493,-118.1"/>
</g>
<!-- Johann17821859 -->
<g id="node14" class="node">
<title>Johann17821859</title>
<polygon fill="none" stroke="black" points="605,-108 540,-108 540,-72 605,-72 605,-108"/>
<text text-anchor="middle" x="572.5" y="-86.3" font-family="Times,serif" font-size="14.00">Johann</text>
</g>
<!-- LeopoldII17471792&#45;&gt;Johann17821859 -->
<g id="edge12" class="edge">
<title>LeopoldII17471792&#45;&gt;Johann17821859</title>
<path fill="none" stroke="black" d="M510.02,-143.7C520.37,-134.97 533.09,-124.24 544.34,-114.75"/>
<polygon fill="black" stroke="black" points="546.83,-117.23 552.22,-108.1 542.32,-111.88 546.83,-117.23"/>
</g>
<!-- Rainer17831853 -->
<g id="node15" class="node">
<title>Rainer17831853</title>
<polygon fill="none" stroke="black" points="687.5,-108 623.5,-108 623.5,-72 687.5,-72 687.5,-108"/>
<text text-anchor="middle" x="655.5" y="-86.3" font-family="Times,serif" font-size="14.00">Rainer</text>
</g>
<!-- LeopoldII17471792&#45;&gt;Rainer17831853 -->
<g id="edge13" class="edge">
<title>LeopoldII17471792&#45;&gt;Rainer17831853</title>
<path fill="none" stroke="black" d="M530.11,-143.88C555.56,-133.14 588.27,-119.35 613.91,-108.54"/>
<polygon fill="black" stroke="black" points="615.5,-111.67 623.35,-104.56 612.78,-105.22 615.5,-111.67"/>
</g>
<!-- Ludwig17841864 -->
<g id="node16" class="node">
<title>Ludwig17841864</title>
<polygon fill="none" stroke="black" points="775,-108 706,-108 706,-72 775,-72 775,-108"/>
<text text-anchor="middle" x="740.5" y="-86.3" font-family="Times,serif" font-size="14.00">Ludwig</text>
</g>
<!-- LeopoldII17471792&#45;&gt;Ludwig17841864 -->
<g id="edge14" class="edge">
<title>LeopoldII17471792&#45;&gt;Ludwig17841864</title>
<path fill="none" stroke="black" d="M535.58,-146.77C538.93,-145.81 542.26,-144.88 545.5,-144 609.1,-126.78 628.86,-128.29 695.81,-107.99"/>
<polygon fill="black" stroke="black" points="697.06,-111.27 705.59,-104.98 695,-104.58 697.06,-111.27"/>
</g>
<!-- Rudolf17881831 -->
<g id="node17" class="node">
<title>Rudolf17881831</title>
<polygon fill="none" stroke="black" points="856,-108 793,-108 793,-72 856,-72 856,-108"/>
<text text-anchor="middle" x="824.5" y="-86.3" font-family="Times,serif" font-size="14.00">Rudolf</text>
</g>
<!-- LeopoldII17471792&#45;&gt;Rudolf17881831 -->
<g id="edge15" class="edge">
<title>LeopoldII17471792&#45;&gt;Rudolf17881831</title>
<path fill="none" stroke="black" d="M535.5,-146.46C538.87,-145.57 542.23,-144.74 545.5,-144 647.11,-121.05 679.2,-136.25 782.95,-108.06"/>
<polygon fill="black" stroke="black" points="784.19,-111.35 792.88,-105.29 782.31,-104.6 784.19,-111.35"/>
</g>
<!-- MarieLouise17911847 -->
<g id="node8" class="node">
<title>MarieLouise17911847</title>
<polygon fill="none" stroke="black" points="119.5,-36 9.5,-36 9.5,0 119.5,0 119.5,-36"/>
<text text-anchor="middle" x="64.5" y="-14.3" font-family="Times,serif" font-size="14.00">Marie Louise</text>
</g>
<!-- FranzIII17681855&#45;&gt;MarieLouise17911847 -->
<g id="edge5" class="edge">
<title>FranzIII17681855&#45;&gt;MarieLouise17911847</title>
<path fill="none" stroke="black" d="M158.92,-71.88C142.43,-62.64 121.88,-51.13 104.16,-41.21"/>
<polygon fill="black" stroke="black" points="105.63,-38.02 95.2,-36.19 102.21,-44.13 105.63,-38.02"/>
</g>
<!-- FerdinandI17931848 -->
<g id="node9" class="node">
<title>FerdinandI17931848</title>
<polygon fill="none" stroke="black" points="241.5,-36 137.5,-36 137.5,0 241.5,0 241.5,-36"/>
<text text-anchor="middle" x="189.5" y="-14.3" font-family="Times,serif" font-size="14.00">Ferdinand I.</text>
</g>
<!-- FranzIII17681855&#45;&gt;FerdinandI17931848 -->
<g id="edge6" class="edge">
<title>FranzIII17681855&#45;&gt;FerdinandI17931848</title>
<path fill="none" stroke="black" d="M189.5,-71.7C189.5,-63.98 189.5,-54.71 189.5,-46.11"/>
<polygon fill="black" stroke="black" points="193,-46.1 189.5,-36.1 186,-46.1 193,-46.1"/>
</g>
<!-- FranzKarl18021878 -->
<g id="node10" class="node">
<title>FranzKarl18021878</title>
<polygon fill="none" stroke="black" points="351.5,-36 259.5,-36 259.5,0 351.5,0 351.5,-36"/>
<text text-anchor="middle" x="305.5" y="-14.3" font-family="Times,serif" font-size="14.00">Franz Karl</text>
</g>
<!-- FranzIII17681855&#45;&gt;FranzKarl18021878 -->
<g id="edge7" class="edge">
<title>FranzIII17681855&#45;&gt;FranzKarl18021878</title>
<path fill="none" stroke="black" d="M217.88,-71.88C233.04,-62.72 251.91,-51.34 268.24,-41.48"/>
<polygon fill="black" stroke="black" points="270.26,-44.35 277.01,-36.19 266.64,-38.36 270.26,-44.35"/>
</g>
</g>
</svg>
