<?xml version="1.0" encoding="UTF-8" standalone="no"?>
<!DOCTYPE svg PUBLIC "-//W3C//DTD SVG 1.1//EN"
 "http://www.w3.org/Graphics/SVG/1.1/DTD/svg11.dtd">
<!-- Generated by graphviz version 2.43.0 (0)
 -->
<!-- Title: Stark Pages: 1 -->
<svg width="745pt" height="188pt"
 viewBox="0.00 0.00 744.50 188.00" xmlns="http://www.w3.org/2000/svg" xmlns:xlink="http://www.w3.org/1999/xlink">
<g id="graph0" class="graph" transform="scale(1 1) rotate(0) translate(4 184)">
<title>Stark</title>
<!-- Richard Stark -->
<g id="node1" class="node">
<title>Richard Stark</title>
<polygon fill="none" stroke="black" points="542.5,-180 426.5,-180 426.5,-144 542.5,-144 542.5,-180"/>
<text text-anchor="middle" x="484.5" y="-158.3" font-family="Times,serif" font-size="14.00">Richard Stark</text>
</g>
<!-- Eddard Stark -->
<g id="node2" class="node">
<title>Eddard Stark</title>
<polygon fill="none" stroke="black" points="339,-108 226,-108 226,-72 339,-72 339,-108"/>
<text text-anchor="middle" x="282.5" y="-86.3" font-family="Times,serif" font-size="14.00">Eddard Stark</text>
</g>
<!-- Richard Stark&#45;&gt;Eddard Stark -->
<g id="edge1" class="edge">
<title>Richard Stark&#45;&gt;Eddard Stark</title>
<path fill="none" stroke="black" d="M435.34,-143.97C407,-134.14 371.18,-121.73 341.34,-111.39"/>
<polygon fill="black" stroke="black" points="342.47,-108.08 331.88,-108.11 340.18,-114.69 342.47,-108.08"/>
</g>
<!-- Brandon Stark -->
<g id="node3" class="node">
<title>Brandon Stark</title>
<polygon fill="none" stroke="black" points="478,-108 357,-108 357,-72 478,-72 478,-108"/>
<text text-anchor="middle" x="417.5" y="-86.3" font-family="Times,serif" font-size="14.00">Brandon Stark</text>
</g>
<!-- Richard Stark&#45;&gt;Brandon Stark -->
<g id="edge2" class="edge">
<title>Richard Stark&#45;&gt;Brandon Stark</title>
<path fill="none" stroke="black" d="M467.94,-143.7C459.82,-135.22 449.91,-124.86 441.03,-115.58"/>
<polygon fill="black" stroke="black" points="443.31,-112.91 433.87,-108.1 438.26,-117.75 443.31,-112.91"/>
</g>
<!-- Lyanna Stark -->
<g id="node4" class="node">
<title>Lyanna Stark</title>
<polygon fill="none" stroke="black" points="608.5,-108 496.5,-108 496.5,-72 608.5,-72 608.5,-108"/>
<text text-anchor="middle" x="552.5" y="-86.3" font-family="Times,serif" font-size="14.00">Lyanna Stark</text>
</g>
<!-- Richard Stark&#45;&gt;Lyanna Stark -->
<g id="edge3" class="edge">
<title>Richard Stark&#45;&gt;Lyanna Stark</title>
<path fill="none" stroke="black" d="M501.31,-143.7C509.63,-135.14 519.81,-124.66 528.89,-115.3"/>
<polygon fill="black" stroke="black" points="531.43,-117.72 535.88,-108.1 526.41,-112.84 531.43,-117.72"/>
</g>
<!-- Benjen Stark -->
<g id="node5" class="node">
<title>Benjen Stark</title>
<polygon fill="none" stroke="black" points="736.5,-108 626.5,-108 626.5,-72 736.5,-72 736.5,-108"/>
<text text-anchor="middle" x="681.5" y="-86.3" font-family="Times,serif" font-size="14.00">Benjen Stark</text>
</g>
<!-- Richard Stark&#45;&gt;Benjen Stark -->
<g id="edge4" class="edge">
<title>Richard Stark&#45;&gt;Benjen Stark</title>
<path fill="none" stroke="black" d="M532.44,-143.97C559.97,-134.19 594.72,-121.84 623.74,-111.52"/>
<polygon fill="black" stroke="black" points="625.09,-114.76 633.35,-108.11 622.75,-108.16 625.09,-114.76"/>
</g>
<!-- Robb Stark -->
<g id="node6" class="node">
<title>Robb Stark</title>
<polygon fill="none" stroke="black" points="97,-36 0,-36 0,0 97,0 97,-36"/>
<text text-anchor="middle" x="48.5" y="-14.3" font-family="Times,serif" font-size="14.00">Robb Stark</text>
</g>
<!-- Eddard Stark&#45;&gt;Robb Stark -->
<g id="edge5" class="edge">
<title>Eddard Stark&#45;&gt;Robb Stark</title>
<path fill="none" stroke="black" d="M225.86,-72.05C189.88,-61.29 143.41,-47.39 107.07,-36.52"/>
<polygon fill="black" stroke="black" points="107.69,-33.05 97.1,-33.54 105.68,-39.76 107.69,-33.05"/>
</g>
<!-- Sansa Stark -->
<g id="node7" class="node">
<title>Sansa Stark</title>
<polygon fill="none" stroke="black" points="218,-36 115,-36 115,0 218,0 218,-36"/>
<text text-anchor="middle" x="166.5" y="-14.3" font-family="Times,serif" font-size="14.00">Sansa Stark</text>
</g>
<!-- Eddard Stark&#45;&gt;Sansa Stark -->
<g id="edge6" class="edge">
<title>Eddard Stark&#45;&gt;Sansa Stark</title>
<path fill="none" stroke="black" d="M254.12,-71.88C238.96,-62.72 220.09,-51.34 203.76,-41.48"/>
<polygon fill="black" stroke="black" points="205.36,-38.36 194.99,-36.19 201.74,-44.35 205.36,-38.36"/>
</g>
<!-- Arya Stark -->
<g id="node8" class="node">
<title>Arya Stark</title>
<polygon fill="none" stroke="black" points="329,-36 236,-36 236,0 329,0 329,-36"/>
<text text-anchor="middle" x="282.5" y="-14.3" font-family="Times,serif" font-size="14.00">Arya Stark</text>
</g>
<!-- Eddard Stark&#45;&gt;Arya Stark -->
<g id="edge7" class="edge">
<title>Eddard Stark&#45;&gt;Arya Stark</title>
<path fill="none" stroke="black" d="M282.5,-71.7C282.5,-63.98 282.5,-54.71 282.5,-46.11"/>
<polygon fill="black" stroke="black" points="286,-46.1 282.5,-36.1 279,-46.1 286,-46.1"/>
</g>
<!-- Bran Stark -->
<g id="node9" class="node">
<title>Bran Stark</title>
<polygon fill="none" stroke="black" points="442,-36 347,-36 347,0 442,0 442,-36"/>
<text text-anchor="middle" x="394.5" y="-14.3" font-family="Times,serif" font-size="14.00">Bran Stark</text>
</g>
<!-- Eddard Stark&#45;&gt;Bran Stark -->
<g id="edge8" class="edge">
<title>Eddard Stark&#45;&gt;Bran Stark</title>
<path fill="none" stroke="black" d="M309.9,-71.88C324.41,-62.81 342.42,-51.55 358.09,-41.76"/>
<polygon fill="black" stroke="black" points="360.37,-44.46 367,-36.19 356.66,-38.52 360.37,-44.46"/>
</g>
<!-- Rickon Stark -->
<g id="node10" class="node">
<title>Rickon Stark</title>
<polygon fill="none" stroke="black" points="568.5,-36 460.5,-36 460.5,0 568.5,0 568.5,-36"/>
<text text-anchor="middle" x="514.5" y="-14.3" font-family="Times,serif" font-size="14.00">Rickon Stark</text>
</g>
<!-- Eddard Stark&#45;&gt;Rickon Stark -->
<g id="edge9" class="edge">
<title>Eddard Stark&#45;&gt;Rickon Stark</title>
<path fill="none" stroke="black" d="M338.96,-71.97C372.67,-61.79 415.59,-48.84 450.56,-38.29"/>
<polygon fill="black" stroke="black" points="451.63,-41.63 460.19,-35.39 449.61,-34.92 451.63,-41.63"/>
</g>
</g>
</svg>
